name C:\Users\tom_v\My Drive\PostDoc\MusculoskeletalSpecialization\ResultsSprinting\Case_2\motion.mot
datacolumns 32
datarows 14
range 0.19153489 0.24133396
endheader 
time	pelvis_tilt	pelvis_list	pelvis_rotation	pelvis_tx	pelvis_ty	pelvis_tz	hip_flexion_r	hip_adduction_r	hip_rotation_r	knee_angle_r	ankle_angle_r	subtalar_angle_r	mtp_angle_r	hip_flexion_l	hip_adduction_l	hip_rotation_l	knee_angle_l	ankle_angle_l	subtalar_angle_l	mtp_angle_l	lumbar_extension	lumbar_bending	lumbar_rotation	arm_flex_r	arm_add_r	arm_rot_r	elbow_flex_r	arm_flex_l	arm_add_l	arm_rot_l	elbow_flex_l	
          0.19153489	         -6.52524362	          3.70816771	         -6.14708510	          1.86805947	          0.95457969	          0.00497114	         16.12110620	         -8.88004035	         -5.98085414	        -56.60908243	        -10.06281767	         -2.60723096	         -0.07703511	         25.88734650	          4.05533557	         -9.08417221	         -5.95650603	          0.28004939	         -3.59597677	          6.41960549	        -12.51998712	         -6.49452999	         15.66101652	          2.92305736	        -20.99914512	         -6.77980462	         27.63261619	          9.13175342	        -20.81989796	         -1.78901662	          1.03828026	
          0.19536559	         -6.96662287	          3.16572667	         -4.22665736	          1.90605719	          0.95224912	          0.00407626	         17.91237973	         -8.11392479	         -6.50097696	        -57.61068899	         -8.31701461	         -1.23225902	         -0.39151997	         24.38682437	          3.93614372	         -8.57697882	         -5.20802287	         -2.41072713	         -3.13601248	          6.61368699	        -11.91201814	         -6.04497664	         14.58187517	          3.52340877	        -17.71223762	         -6.38694710	         16.11160599	         13.63287804	        -20.33913644	         -7.94551586	          3.98839457	
          0.19919629	         -7.43494422	          2.52241810	         -2.30142765	          1.94411770	          0.94931662	          0.00320389	         19.83906174	         -7.34682701	         -7.04340662	        -58.65669357	         -7.35324755	         -0.41494419	         -4.00059862	         22.91113781	          3.61046582	         -8.09895471	         -4.53694593	         -5.22725098	         -2.65653486	          6.82645545	        -11.26260489	         -5.52651149	         13.52480932	          3.09449759	        -14.45120667	         -7.82768398	          6.98112884	         17.13138449	        -19.73667982	        -12.08774026	          9.20425049	
          0.20302699	         -7.93684788	          1.81078364	         -0.36730258	          1.98227850	          0.94579651	          0.00229058	         21.89836005	         -6.64646361	         -7.61144712	        -59.74353528	         -7.32779810	          0.36876358	         -1.35851660	         21.50175563	          3.13577938	         -7.80222837	         -4.08330941	         -8.78850510	         -1.89704054	          7.21119255	        -10.55816504	         -4.98981575	         12.46734119	          1.21128728	        -11.41081698	        -10.12689157	          1.41433083	         19.52718348	        -19.13352289	        -13.19970639	         16.85363777	
          0.20685768	         -8.50418637	          1.32503133	          1.73928398	          2.02034854	          0.94193452	          0.00086724	         24.09864139	         -6.47360721	         -8.31484626	        -60.94604382	         -5.79736233	          2.04345137	          0.98720546	         20.51809665	          3.09148094	         -6.55955820	         -5.53921097	         -5.78334290	         -0.24025889	          8.16376629	         -9.82297772	         -4.74133583	         11.17236196	         -2.29172204	         -8.47672702	        -11.96300396	          0.00026579	         20.93667579	        -18.99077836	        -10.89380318	         26.79450599	
          0.21068838	         -8.99269300	          1.31764470	          3.99284917	          2.05824870	          0.93846730	         -0.00106922	         26.27683815	         -7.09986596	         -9.02741407	        -62.23694952	         -4.48696212	          3.44598953	          2.91319124	         19.43289210	          3.77676358	         -3.30519804	         -7.23617174	         -1.09689685	         -0.69238492	          9.66654273	         -9.30374467	         -5.05520328	          9.61467344	         -7.43595391	         -5.50067319	        -12.86801874	          3.09619062	         21.88825299	        -19.81962166	         -5.78819358	         38.32706157	
          0.21451908	         -9.30391209	          1.63477103	          6.27678813	          2.09595956	          0.93575953	         -0.00330788	         28.27604247	         -8.22311021	         -9.59641312	        -63.51041560	         -3.84194025	          4.38192255	          4.17485867	         17.95350526	          4.87923412	          0.53083266	         -8.43444949	          1.37385705	         -2.88548243	         11.36537957	         -9.14422915	         -5.70951578	          7.93786961	        -14.05442920	         -2.52207590	        -13.18378189	         10.47213337	         23.15248695	        -21.55927555	          0.56115301	         50.31506908	
          0.21834978	         -9.39798470	          1.94731734	          8.45744526	          2.13348743	          0.93378659	         -0.00554936	         30.03110114	         -9.31089528	         -9.93587907	        -64.65335661	         -3.10961069	          5.30737132	          4.84107518	         16.09232877	          5.78945004	          4.03495895	         -9.40587608	          3.26813940	         -4.78600483	         13.23058122	         -9.32572368	         -6.27919433	          6.29202097	        -21.60753284	          0.16852509	        -11.91863636	         20.53994116	         25.20888827	        -23.60800545	          6.76764499	         61.82740698	
          0.22218047	         -9.34523065	          2.07142016	         10.41683139	          2.17083720	          0.93230005	         -0.00756992	         31.67107321	        -10.04332803	         -9.97940143	        -65.63207704	         -2.12243432	          6.36347949	          5.32252156	         14.01278310	          6.18540323	          6.73612318	        -10.23418794	          5.01255552	         -5.65558387	         15.18006865	         -9.66510021	         -6.54551085	          4.78826673	        -29.39094310	          2.23464811	         -9.08083104	         31.22271454	         28.06845206	        -25.28665440	         12.07741273	         72.33556019	
          0.22601117	         -9.28360922	          1.93078836	         12.09363100	          2.20804694	          0.93097368	         -0.00927277	         33.39915231	        -10.31220317	         -9.72941501	        -66.44672900	         -1.12946439	          7.42082869	          5.73130815	         11.95046446	          5.99823856	          8.51927378	        -10.96301677	          6.63478964	         -5.53485367	         17.17249797	         -9.91637586	         -6.45843496	          3.49013556	        -36.86975205	          3.61797033	         -5.49232546	         40.99311898	         31.41009043	        -26.07240682	         16.07577570	         81.59818305	
          0.22984187	         -9.27679129	          1.51872795	         13.51196639	          2.24519361	          0.92966495	         -0.01073115	         35.27064257	        -10.17102189	         -9.30156173	        -67.08378055	         -0.14970638	          8.42185174	          6.01433258	         10.02757144	          5.30115673	          9.49891786	        -11.60929566	          7.92222764	         -4.80658397	         19.36061176	         -9.96273024	         -6.04003816	          2.37668396	        -43.76642174	          4.43877350	         -1.71969166	         49.06604212	         34.80322706	        -25.67749601	         18.52171606	         89.54937475	
          0.23367257	         -9.30203195	          0.90826222	         14.74585538	          2.28234953	          0.92846547	         -0.01208423	         37.20116333	         -9.78091085	         -8.83837347	        -67.52589389	          0.89014840	          9.28376606	          6.21852828	          8.25194830	          4.24180676	          9.92131239	        -12.21609251	          8.65292513	         -3.82332019	         21.81547498	         -9.83930602	         -5.37294500	          1.35733786	        -49.95283541	          4.85211376	          1.94880703	         55.12078082	         37.90808790	        -24.12712397	         19.39978684	         96.25967366	
          0.23750327	         -9.30622215	          0.17287631	         15.84687959	          2.31958348	          0.92752343	         -0.01341844	         39.08140668	         -9.26330366	         -8.43469582	        -67.76122281	          1.96625078	          9.65693960	          6.01837103	          6.57513517	          2.93930213	          9.99122030	        -12.81505592	          8.69913798	         -2.87412809	         24.52294140	         -9.62804793	         -4.52674572	          0.36793778	        -55.37024032	          4.99419221	          5.33439232	         59.04429061	         40.53292782	        -21.56105033	         18.78910004	        101.83362266	
          0.24133396	         -9.26536866	         -0.64622665	         16.83623073	          2.35694812	          0.92689958	         -0.01475155	         40.85960208	         -8.67288099	         -8.12573432	        -67.79181121	          3.08730650	          9.35647054	          4.57801405	          4.97492399	          1.45866150	          9.74366132	        -13.42744126	          7.97742928	         -2.08511284	         27.56291519	         -9.37025313	         -3.54449137	         -0.60969996	        -59.98174250	          4.98970817	          8.28643060	         60.77372571	         42.65039897	        -18.18608449	         16.94158803	        106.36104820	
